<?xml version="1.0" encoding="UTF-8"?>
<svg xmlns="http://www.w3.org/2000/svg" xmlns:xlink="http://www.w3.org/1999/xlink" width="128px" height="128px" viewBox="0 0 128 128" version="1.1">
<g id="surface1">
<path style=" stroke:none;fill-rule:nonzero;fill:rgb(0%,0%,0%);fill-opacity:1;" d="M 68.5 8.011719 C 65.824219 11.066406 64.375 14.738281 64.273438 17.976562 C 64.148438 21.898438 65.699219 25.023438 69.523438 26.625 L 70.976562 27.226562 L 70.925781 28.773438 C 70.800781 32.601562 73.675781 37.351562 77.949219 40.5 C 82.199219 43.625 87.5 45.074219 91.875 43.523438 C 94.449219 42.148438 97.476562 40.300781 99.324219 38.25 C 101.148438 36.199219 101.898438 34.425781 100.800781 31.75 C 99.925781 30.675781 98.601562 29.898438 96.300781 28.851562 L 95 28.226562 L 95 26.773438 C 95 25.925781 94 23.914062 91.300781 22.164062 C 88.601562 20.421875 84.398438 18.953125 78.976562 18.699219 L 78.449219 18.671875 L 78 18.433594 C 74.449219 16.511719 72.449219 14.460938 71.050781 12.34375 C 70.101562 10.90625 69.398438 9.515625 68.5 8.011719 Z M 85.449219 24.191406 C 88.148438 24.214844 90.523438 27.574219 90.476562 28.125 C 90.398438 29.148438 81.75 29.375 81.75 27.949219 C 81.75 27.101562 82.675781 24.164062 85.449219 24.191406 Z M 71.175781 40.351562 L 71.101562 41.175781 C 70.949219 42.75 70.625 44.351562 70.023438 45.824219 C 72.226562 47.675781 74.625 49.273438 77.050781 50.476562 C 80.101562 52 83.175781 52.875 85.949219 52.949219 C 85.726562 51.476562 85.648438 50 85.75 48.523438 C 81.976562 48.023438 78.351562 46.375 75.273438 44.125 C 73.773438 43.023438 72.375 41.75 71.175781 40.351562 Z M 63.324219 45.625 C 62.773438 46.726562 62.125 47.699219 61.398438 48.574219 C 70.449219 59.199219 81.648438 63.550781 89.574219 64 C 89.625 61.949219 89.523438 59.699219 89.226562 57.199219 C 84.601562 58 79.648438 56.800781 75.050781 54.5 C 70.726562 52.375 66.675781 49.25 63.324219 45.625 Z M 58.050781 51.625 C 57.023438 52.300781 55.976562 52.875 54.949219 53.398438 C 62.976562 64.574219 73.449219 71.125 86.726562 74.699219 C 87.851562 73.199219 88.675781 71.101562 89.148438 68.476562 C 79.824219 67.949219 67.800781 63.023438 58.050781 51.625 Z M 51.925781 56.898438 C 37.074219 64.550781 30.625 73.398438 28.050781 83.550781 C 25.375 94.023438 27.050781 106.273438 29.050781 119.800781 L 73.75 119.949219 C 73.675781 118.351562 73.425781 117.199219 73.074219 116.425781 C 72.574219 115.300781 71.976562 114.773438 70.773438 114.25 C 68.375 113.226562 63.5 113.074219 56.75 112.601562 L 51.273438 112.199219 L 55.425781 108.648438 C 58.824219 105.75 61.5 102.949219 63.625 100.199219 C 64.523438 98.226562 64.625 95.351562 63.851562 92.226562 C 62.875 88.175781 60.5 83.898438 57.800781 81.375 C 56.425781 80.101562 55.023438 79.300781 53.75 79 C 52.476562 78.699219 51.351562 78.800781 50.050781 79.574219 C 47.425781 81.125 44.101562 85.976562 41.800781 96.226562 L 37.398438 95.226562 C 39.851562 84.425781 43.273438 78.351562 47.75 75.699219 C 49.449219 74.699219 51.273438 74.300781 53.050781 74.375 C 53.648438 74.398438 54.226562 74.476562 54.800781 74.625 C 57.050781 75.148438 59.074219 76.425781 60.851562 78.074219 C 64.398438 81.375 67.050781 86.25 68.226562 91.175781 C 68.273438 91.398438 68.324219 91.648438 68.375 91.875 C 68.601562 91.273438 68.824219 90.675781 69 90.074219 C 69.351562 88.949219 69.625 87.800781 69.824219 86.625 C 66.875 81.25 66.148438 74.976562 65.648438 70.125 C 60.5 66.601562 55.925781 62.226562 51.925781 56.898438 Z M 70.601562 73.175781 C 71.398438 78.625 72.800781 84.476562 76.476562 88.199219 L 76.824219 88.550781 L 77 89.023438 C 81 100.273438 83.273438 108.773438 85.273438 119.925781 L 99.851562 120 C 99.601562 118 98.925781 116.648438 97.976562 115.625 C 96.699219 114.273438 94.699219 113.375 91.925781 112.925781 L 90.351562 112.675781 L 90.074219 111.125 C 88.050781 100.550781 84.050781 91.25 85.398438 79.050781 C 80.101562 77.601562 75.148438 75.675781 70.601562 73.175781 Z M 70.601562 73.175781 "/>
</g>
</svg>
